<?xml version="1.0" encoding="UTF-8"?>
<svg width="283" height="283" fill="none" xmlns="http://www.w3.org/2000/svg">
    <path d="M141.5 283C219.589 283 283 219.589 283 141.5C283 63.4111 219.589 0 141.5 0C63.4111 0 0 63.4111 0 141.5C0 219.589 63.4111 283 141.5 283Z" fill="#FF9F1C"/>
    <path d="M141.5 255C204.066 255 255 204.066 255 141.5C255 78.9335 204.066 28 141.5 28C78.9335 28 28 78.9335 28 141.5C28 204.066 78.9335 255 141.5 255Z" fill="#011936"/>
    <path d="M141.5 226C188.063 226 226 188.063 226 141.5C226 94.9365 188.063 57 141.5 57C94.9365 57 57 94.9365 57 141.5C57 188.063 94.9365 226 141.5 226Z" fill="#FF9F1C"/>
    <path d="M96 141.5C96 116.923 116.923 96 141.5 96C166.077 96 187 116.923 187 141.5" stroke="#011936" stroke-width="8"/>
    <path d="M96 141.5C96 166.077 116.923 187 141.5 187C166.077 187 187 166.077 187 141.5" stroke="#011936" stroke-width="8"/>
</svg> 